<svg width="945" height="495" viewBox="0 0 945 495" fill="none" xmlns="http://www.w3.org/2000/svg">
<g clip-path="url(#clip0_77_148)">
<mask id="mask0_77_148" style="mask-type:luminance" maskUnits="userSpaceOnUse" x="0" y="0" width="945" height="495">
<path d="M0 0H945V495H0V0Z" fill="white"/>
</mask>
<g mask="url(#mask0_77_148)">
<path d="M472.5 747.77C670.77 747.77 831.5 587.04 831.5 388.77C831.5 190.5 670.77 29.77 472.5 29.77C274.23 29.77 113.5 190.5 113.5 388.77C113.5 587.04 274.23 747.77 472.5 747.77Z" fill="#0F172A"/>
<path d="M852.14 158.19C852.14 167.9 848.2 176.7 841.83 183.07C835.46 189.44 826.66 193.38 816.95 193.38H554.33C534.9 193.38 519.15 177.62 519.15 158.19C519.15 148.48 523.08 139.68 529.45 133.31C535.82 126.94 544.62 123.01 554.33 123.01H816.95C836.38 123.01 852.14 138.76 852.14 158.19Z" fill="#2CB381"/>
<path d="M852.14 158.19C852.14 167.9 848.2 176.7 841.83 183.07C835.46 189.44 826.66 193.38 816.95 193.38H780.76V123.02H816.95C836.38 123.02 852.14 138.77 852.14 158.2V158.19Z" fill="#525151"/>
<path d="M557.96 172.82C566.04 172.82 572.6 166.27 572.6 158.19C572.6 150.11 566.05 143.56 557.96 143.56C549.87 143.56 543.32 150.11 543.32 158.19C543.32 166.27 549.87 172.82 557.96 172.82Z" fill="#F8F8F8"/>
<path d="M603.71 172.82C611.79 172.82 618.35 166.27 618.35 158.19C618.35 150.11 611.8 143.56 603.71 143.56C595.62 143.56 589.07 150.11 589.07 158.19C589.07 166.27 595.62 172.82 603.71 172.82Z" fill="#F8F8F8"/>
<path d="M649.45 172.82C657.53 172.82 664.09 166.27 664.09 158.19C664.09 150.11 657.54 143.56 649.45 143.56C641.36 143.56 634.81 150.11 634.81 158.19C634.81 166.27 641.36 172.82 649.45 172.82Z" fill="#F8F8F8"/>
<path d="M695.18 172.82C703.26 172.82 709.82 166.27 709.82 158.19C709.82 150.11 703.27 143.56 695.18 143.56C687.09 143.56 680.54 150.11 680.54 158.19C680.54 166.27 687.09 172.82 695.18 172.82Z" fill="#F8F8F8"/>
<path d="M740.93 172.82C749.01 172.82 755.57 166.27 755.57 158.19C755.57 150.11 749.02 143.56 740.93 143.56C732.84 143.56 726.29 150.11 726.29 158.19C726.29 166.27 732.84 172.82 740.93 172.82Z" fill="#F8F8F8"/>
<path d="M816.46 160.39C822.35 160.39 827.13 155.62 827.13 149.73C827.13 143.84 822.35 139.07 816.46 139.07C810.57 139.07 805.79 143.84 805.79 149.73C805.79 155.62 810.57 160.39 816.46 160.39Z" fill="#F8F8F8"/>
<path d="M821.36 177.31H811.55C809.37 177.31 807.72 175.32 808.14 173.17L812.06 153.07H820.86L824.78 173.17C825.2 175.32 823.55 177.31 821.37 177.31H821.36Z" fill="#F8F8F8"/>
<path d="M138.79 158.19L161.13 124.49L202.37 147.18L179.55 183.84L138.79 158.19Z" fill="#E49948"/>
<path d="M472.5 577.19L207.64 573.55C207.64 573.55 224.11 310.55 237.37 299.01L311.31 247.45L422.67 258.68L457.1 272.44L472.5 577.2V577.19Z" fill="#34D399"/>
<path d="M269.73 402.45L89.87 376.33C41.77 369.34 19.03 313.11 48.76 274.66L138.79 158.19L179.56 183.85L136.5 268.98L317.32 246.71L269.74 402.45H269.73Z" fill="#34D399"/>
<path d="M170.58 268.91C136.89 268.91 109.48 241.5 109.48 207.81C109.48 174.12 136.89 146.71 170.58 146.71C204.27 146.71 231.68 174.12 231.68 207.81C231.68 241.5 204.27 268.91 170.58 268.91ZM170.58 161.01C144.77 161.01 123.78 182.01 123.78 207.81C123.78 233.61 144.78 254.61 170.58 254.61C196.38 254.61 217.38 233.61 217.38 207.81C217.38 182.01 196.38 161.01 170.58 161.01Z" fill="#3D3D3D"/>
<path fill-rule="evenodd" clip-rule="evenodd" d="M192.23 251.4C190.28 249.41 188.1 247.63 185.72 246.16C184.82 245.59 183.88 245.09 182.93 244.6C178.31 242.3 173.09 240.96 167.55 240.95C148.37 240.84 132.73 256.34 132.63 275.51C132.56 290.82 142.4 303.88 156.13 308.57C159.6 309.76 163.31 310.4 167.18 310.43C171.05 310.44 174.76 309.86 178.25 308.7C184.86 306.52 190.59 302.42 194.76 297.07C195.68 295.9 196.5 294.68 197.24 293.42C200.29 288.28 202.05 282.31 202.08 275.89C202.09 273.65 201.89 271.45 201.5 269.33C200.22 262.43 196.91 256.26 192.2 251.44V251.4H192.23ZM180.92 265.69V265.81C180.74 269.65 179.24 273.07 176.95 275.58C174.35 278.41 170.71 280.09 166.74 279.83C159.31 279.35 153.6 272.3 153.97 264.08C154.35 255.84 160.69 249.56 168.14 250.05C171.81 250.29 175.07 252.15 177.38 254.97C179.33 257.34 180.6 260.37 180.86 263.72C180.92 264.37 180.94 265.03 180.91 265.69H180.92Z" fill="#F7F7F7"/>
<path d="M169.37 291.34L165.25 291.32C160.28 291.29 156.23 295.3 156.2 300.27L155.58 415.25C155.55 420.22 159.56 424.27 164.53 424.29L168.65 424.31C173.62 424.33 177.67 420.33 177.7 415.36L178.32 300.38C178.35 295.41 174.34 291.36 169.37 291.34Z" fill="#F7F7F7"/>
<path d="M157.78 398.74L157.76 402.86C157.73 407.83 161.74 411.88 166.71 411.9L198.9 412.06C203.87 412.09 207.92 408.08 207.95 403.11L207.97 398.99C208 394.02 203.99 389.97 199.02 389.95L166.83 389.79C161.86 389.77 157.81 393.78 157.78 398.74Z" fill="#F7F7F7"/>
<path d="M158.24 363.22L158.22 367.34C158.19 372.31 162.2 376.36 167.17 376.38L199.36 376.54C204.33 376.56 208.38 372.56 208.41 367.59L208.43 363.47C208.46 358.5 204.45 354.45 199.48 354.43L167.29 354.27C162.32 354.25 158.27 358.25 158.24 363.22Z" fill="#F7F7F7"/>
<mask id="mask1_77_148" style="mask-type:luminance" maskUnits="userSpaceOnUse" x="107" y="144" width="127" height="127">
<path d="M107.48 144.71V270.91H233.68V144.71H107.48ZM153.95 264.07C153.89 265.31 153.99 266.52 154.2 267.69C147.94 265.97 141.97 263.25 136.54 259.67C139.12 254.72 142.85 250.47 147.38 247.28C151.31 249.59 155.58 251.32 160.09 252.38C156.59 254.87 154.19 259.11 153.96 264.08L153.95 264.07Z" fill="white"/>
</mask>
<g mask="url(#mask1_77_148)">
<path d="M170.58 268.91C136.89 268.91 109.48 241.5 109.48 207.81C109.48 174.12 136.89 146.71 170.58 146.71C204.27 146.71 231.68 174.12 231.68 207.81C231.68 241.5 204.27 268.91 170.58 268.91ZM170.58 161.01C144.77 161.01 123.78 182.01 123.78 207.81C123.78 233.61 144.78 254.61 170.58 254.61C196.38 254.61 217.38 233.61 217.38 207.81C217.38 182.01 196.38 161.01 170.58 161.01Z" fill="#3D3D3D"/>
</g>
<path d="M167.02 160.4L160.05 129.82C159.1 125.66 162.26 121.7 166.53 121.7H198.52C207.74 121.7 214.57 130.26 212.52 139.25L207.7 160.4C205.54 169.89 197.1 176.63 187.36 176.63C177.62 176.63 169.18 169.9 167.02 160.4Z" fill="#FFBD6E"/>
<path d="M403.04 164.06V264.69C403.04 267.83 401.03 270.6 398.05 271.57L393.01 273.2C366.81 281.62 338.63 281.62 312.45 273.2L307.44 271.57C304.46 270.61 302.45 267.84 302.45 264.73V164.07H403.05H403.04V164.06Z" fill="#FFBC6E"/>
<path d="M310.45 168.53C310.45 160.95 304.33 154.85 296.78 154.85C289.23 154.85 283.1 160.95 283.1 168.53C283.1 176.11 289.22 188.42 296.78 188.42C304.34 188.42 310.45 176.07 310.45 168.53Z" fill="#FFBC6E"/>
<path d="M422.21 168.53C422.21 160.95 416.09 154.85 408.53 154.85C400.97 154.85 394.85 160.95 394.85 168.53C394.85 176.11 400.97 188.42 408.53 188.42C416.09 188.42 422.21 176.07 422.21 168.53Z" fill="#FFBC6E"/>
<path d="M352.66 79.05C387.39 79.05 415.15 107.96 413.76 142.68L411.75 174.77C410.48 206.46 384.4 231.52 352.65 231.52H352.64C320.89 231.52 294.82 206.46 293.55 174.77L291.54 142.68" fill="#E47B4C"/>
<path d="M352.65 231.99C320.9 231.99 294.83 206.93 293.56 175.24L291.55 143.15C290.15 108.43 317.93 79.52 352.65 79.52C387.37 79.52 415.14 108.43 413.75 143.15L411.74 175.24C410.47 206.93 384.39 231.99 352.64 231.99H352.63H352.65Z" fill="#E47B4C"/>
<path d="M352.65 231.99C320.9 231.99 294.83 206.93 293.56 175.24L291.55 143.15C290.15 108.43 317.93 79.52 352.65 79.52C387.37 79.52 415.14 108.43 413.75 143.15L411.74 175.24C410.47 206.93 384.39 231.99 352.64 231.99H352.63H352.65Z" fill="#FFBC6E"/>
<path d="M403.04 203.85V230.99C393.1 238.57 380.7 243 367.28 243C357.1 243 347.52 240.45 339.16 235.9C336.44 234.42 337.99 230.21 341.03 230.8C344.81 231.57 348.72 231.99 352.72 231.99C373.94 231.99 392.64 220.75 403.05 203.85H403.04Z" fill="#E49948"/>
<path d="M338.92 145.73C338.92 148.34 335.31 146.1 330.85 146.1C326.39 146.1 322.78 148.33 322.78 145.73C322.78 143.13 326.39 141.01 330.85 141.01C335.31 141.01 338.92 143.12 338.92 145.73Z" fill="black"/>
<path d="M382.43 145.73C382.43 148.34 378.82 146.1 374.36 146.1C369.9 146.1 366.29 148.33 366.29 145.73C366.29 143.13 369.9 141.01 374.36 141.01C378.82 141.01 382.43 143.12 382.43 145.73Z" fill="black"/>
<path d="M336.68 124.73C337.51 124.08 338.04 123.09 338.03 121.97C338.01 120.12 336.49 118.59 334.61 118.6C334.24 118.6 326.32 118.71 319.05 124.8C317.59 126.01 317.41 128.13 318.62 129.61C319.83 131.05 321.98 131.24 323.43 130.03C328.75 125.56 334.59 125.46 334.66 125.46C335.41 125.45 336.1 125.13 336.68 124.72V124.73Z" fill="black"/>
<path d="M368.68 124.73C367.85 124.08 367.32 123.09 367.33 121.97C367.35 120.12 368.87 118.59 370.75 118.6C371.12 118.6 379.04 118.71 386.32 124.8C387.78 126.01 387.96 128.13 386.75 129.61C385.54 131.05 383.39 131.24 381.94 130.03C376.62 125.56 370.78 125.46 370.71 125.46C369.96 125.45 369.27 125.13 368.69 124.72L368.68 124.73Z" fill="black"/>
<path d="M353.48 180.03C352.31 179.72 351.22 180.29 350.87 181.3C350.49 182.35 351.06 183.54 352.12 183.91C352.61 184.08 353.11 184.24 353.61 184.37C363.21 186.94 374.56 182.44 379.47 174.12C379.74 173.65 379.82 173.1 379.68 172.56C379.54 172.03 379.21 171.58 378.73 171.3C378.58 171.2 378.41 171.14 378.22 171.09C377.32 170.85 376.38 171.24 375.91 172.04C371.9 178.85 362.58 182.53 354.65 180.4C354.25 180.29 353.85 180.18 353.46 180.02V180.04H353.48V180.03Z" fill="black"/>
<path fill-rule="evenodd" clip-rule="evenodd" d="M406.94 112.07C399.19 96.47 382.68 84.11 369.89 76.36C359.22 69.89 345.9 69.45 334.88 75.3C319.61 83.4 299.33 97.42 294.55 116.49C292.4 125.04 291.55 133.87 291.55 142.68L292.32 154.97C293.18 156.25 294.65 157.11 296.32 157.11C299 157.11 301.15 154.92 301.15 152.26C301.15 151.03 301.2 150.59 301.29 149.73C301.32 149.45 301.36 149.13 301.4 148.72C301.4 146.52 301.57 143.81 301.87 140.82C303.24 126.79 307.34 110.32 320.61 100.29C324.58 97.29 329.75 96.36 334.55 97.7L339.87 99.18C347 101.17 354.52 101.22 361.68 99.32L367.83 97.69C372.62 96.42 377.74 97.41 381.68 100.41C398.26 113.06 403.5 134.74 403.91 141C404.1 143.92 404.22 146.49 404.22 148.39V152.08C404.22 154.63 406.12 156.88 408.66 157.08C410.45 157.22 412.07 156.38 413.01 155.03L413.78 142.66C414.22 131.62 411.7 121.17 406.96 112.05L406.94 112.07Z" fill="black"/>
<path d="M494.13 289.34L558.63 355.18L640.02 262.14L673.24 290.18C677.5 293.78 678.66 299.87 676 304.77L603.92 439.88C584.51 475.79 538.02 486.54 504.81 462.81L403.02 394.29V244.54L443.11 257.65C462.41 263.96 479.91 274.83 494.12 289.33L494.13 289.34Z" fill="#34D399"/>
<path d="M661.35 280.1L640.02 262.14L642.91 258.09C652.03 241.72 670.43 234.75 685.23 236.92L689.33 237.52C700.65 239.18 712.2 238.13 723.07 234.44L744.28 227.25C746.25 226.59 750.2 228.68 750.98 231.06C751.73 233.36 750.87 236.4 749.14 238.11L743.7 243.54C737.11 250.11 728.9 254.72 719.97 257.05C707.02 260.42 669.95 272.43 665.76 283.81" fill="#FFBD6E"/>
</g>
</g>
<defs>
<clipPath id="clip0_77_148">
<rect width="945" height="495" fill="white"/>
</clipPath>
</defs>
</svg>
